<svg width="1328" height="339" viewBox="0 0 1328 339" fill="none" xmlns="http://www.w3.org/2000/svg">
<g clip-path="url(#clip0_202_2)">
<path fill-rule="evenodd" clip-rule="evenodd" d="M247.126 0C255.729 0 263.386 5.38277 266.197 13.4065L337.199 216.104C340.86 226.555 340.89 237.913 337.285 248.383L321.874 293.132C319.093 301.206 311.411 306.636 302.769 306.636H37.5069C28.865 306.636 21.1826 301.206 18.4019 293.132L2.99124 248.383C-0.614604 237.913 -0.584605 226.555 3.07651 216.104L74.0789 13.4065C76.8896 5.38277 84.5466 0 93.1498 0H247.126ZM68.0783 251.88H180.794C196.003 251.88 206.71 237.215 201.821 223.082L149.047 70.5379C145.988 61.6982 137.533 55.752 128.02 55.752H121.757C112.287 55.752 103.86 61.646 100.768 70.4305L47.0895 222.974C42.1091 237.127 52.8212 251.88 68.0783 251.88ZM247.867 183.78C235.604 183.78 225.662 193.536 225.662 205.572V230.088C225.662 242.123 235.604 251.88 247.867 251.88H272.848C285.112 251.88 295.053 242.123 295.053 230.088V205.572C295.053 193.536 285.112 183.78 272.848 183.78H247.867Z" fill="black"/>
<path d="M1176.28 268.634V104.812C1176.28 103.737 1176.87 103.2 1178.06 103.2H1206.11C1207.3 103.2 1208.05 103.737 1208.37 104.812L1211.59 117.389C1212.02 118.249 1212.62 118.679 1213.37 118.679C1214.12 118.571 1214.77 118.249 1215.3 117.711C1218.85 112.982 1224.49 108.843 1232.23 105.296C1239.97 101.641 1248.09 99.8135 1256.58 99.8135C1268.62 99.8135 1279.26 101.91 1288.51 106.102C1297.86 110.187 1305.28 115.884 1310.76 123.194C1316.35 130.503 1320.54 138.78 1323.34 148.025C1326.13 157.269 1327.53 167.32 1327.53 178.177V268.634C1327.53 269.709 1326.99 270.246 1325.92 270.246H1293.51C1292.43 270.246 1291.89 269.709 1291.89 268.634V178.177C1291.89 172.265 1291.14 166.675 1289.64 161.408C1288.13 156.141 1285.82 151.303 1282.7 146.896C1279.69 142.381 1275.5 138.834 1270.13 136.254C1264.75 133.567 1258.57 132.223 1251.58 132.223C1238.9 132.223 1229.06 136.523 1222.08 145.123C1215.09 153.722 1211.59 164.149 1211.59 176.403V268.634C1211.59 269.709 1211.06 270.246 1209.98 270.246H1178.06C1176.87 270.246 1176.28 269.709 1176.28 268.634Z" fill="black"/>
<path d="M980.655 186.723C980.655 160.387 987.911 139.318 1002.42 123.516C1017.04 107.714 1037.04 99.8135 1062.4 99.8135C1087.77 99.8135 1107.82 107.768 1122.55 123.677C1137.27 139.587 1144.64 160.602 1144.64 186.723C1144.64 212.737 1137.27 233.698 1122.55 249.607C1107.82 265.517 1087.77 273.471 1062.4 273.471C1037.04 273.471 1017.04 265.57 1002.42 249.769C987.911 233.859 980.655 212.844 980.655 186.723ZM1016.29 186.723C1016.29 203.385 1020.37 216.714 1028.54 226.711C1036.71 236.6 1048 241.545 1062.4 241.545C1077.13 241.545 1088.58 236.6 1096.75 226.711C1104.92 216.714 1109 203.385 1109 186.723C1109 170.061 1104.92 156.839 1096.75 147.057C1088.58 137.168 1077.13 132.223 1062.4 132.223C1047.89 132.223 1036.55 137.168 1028.38 147.057C1020.32 156.947 1016.29 170.169 1016.29 186.723Z" fill="black"/>
<path d="M793.559 186.723C793.559 161.032 800.707 140.124 815.004 124C829.408 107.876 847.898 99.8135 870.471 99.8135C879.286 99.8135 887.939 101.48 896.431 104.812C905.031 108.037 911.749 112.122 916.587 117.066C917.984 118.464 919.005 118.464 919.65 117.066L922.875 105.135C923.198 103.845 924.004 103.2 925.294 103.2H953.35C954.425 103.2 954.962 103.737 954.962 104.812V264.603C954.962 286.747 947.545 304.645 932.711 318.296C917.877 332.056 898.904 338.935 875.792 338.935C855.368 338.935 838.008 333.829 823.711 323.617C809.522 313.405 802.105 301.205 801.46 287.015C801.46 285.941 801.997 285.403 803.072 285.403H834.031C835.106 285.403 836.019 285.941 836.772 287.015C837.954 288.843 838.868 290.187 839.513 291.047C840.158 292.014 841.609 293.626 843.866 295.884C846.231 298.249 848.65 300.022 851.122 301.205C853.595 302.495 857.035 303.677 861.442 304.752C865.849 305.935 870.633 306.526 875.792 306.526C883.639 306.526 890.465 305.343 896.27 302.978C902.075 300.721 906.59 297.55 909.814 293.465C913.039 289.38 915.404 284.919 916.909 280.082C918.522 275.352 919.435 270.193 919.65 264.603V256.702C919.65 255.842 919.113 255.412 918.038 255.412C917.93 255.412 917.017 256.057 915.297 257.347C913.684 258.529 911.427 260.034 908.525 261.862C905.622 263.582 902.29 265.355 898.528 267.183C894.873 268.903 890.519 270.354 885.467 271.536C880.415 272.826 875.416 273.471 870.471 273.471C848.542 273.471 830.215 265.355 815.488 249.124C800.869 232.892 793.559 212.092 793.559 186.723ZM841.287 147.219C833.225 157.108 829.193 170.276 829.193 186.723C829.193 203.17 833.225 216.445 841.287 226.55C849.456 236.547 860.797 241.545 875.309 241.545C889.605 241.545 900.57 236.708 908.202 227.033C915.834 217.251 919.65 203.815 919.65 186.723C919.65 170.276 915.78 157.108 908.041 147.219C900.409 137.222 889.498 132.223 875.309 132.223C860.797 132.223 849.456 137.222 841.287 147.219Z" fill="black"/>
<path d="M682.643 268.634V104.812C682.643 103.737 683.073 103.2 683.933 103.2H712.473C713.655 103.2 714.408 103.845 714.73 105.135L717.955 117.389C718.277 118.141 718.815 118.571 719.567 118.679C720.32 118.786 720.911 118.571 721.341 118.034C733.488 105.887 746.226 99.8135 759.555 99.8135H777.131C778.206 99.8135 778.743 100.351 778.743 101.426V131.256C778.743 132.331 778.206 132.868 777.131 132.868H757.943C745.259 132.868 735.423 137.114 728.436 145.606C721.448 153.991 717.955 164.257 717.955 176.403V268.634C717.955 269.709 717.417 270.246 716.342 270.246H683.933C683.073 270.246 682.643 269.709 682.643 268.634Z" fill="black"/>
<path d="M456.06 268.311L533.295 39.3478C533.617 38.2728 534.316 37.7354 535.391 37.7354H581.506C582.581 37.7354 583.28 38.2728 583.602 39.3478L660.837 268.311C660.945 268.741 660.837 269.171 660.515 269.601C660.192 270.031 659.762 270.246 659.225 270.246H624.88C623.698 270.246 622.999 269.709 622.784 268.634L607.95 222.68C607.627 221.605 606.982 221.068 606.015 221.068H510.882C509.915 221.068 509.27 221.605 508.947 222.68L494.113 268.634C493.898 269.709 493.199 270.246 492.017 270.246H457.672C457.135 270.246 456.705 270.031 456.382 269.601C456.06 269.171 455.952 268.741 456.06 268.311ZM519.912 188.013C519.697 189.088 520.127 189.625 521.202 189.625H595.857C597.039 189.625 597.469 189.088 597.147 188.013L560.061 73.0474C559.738 72.2949 559.201 71.9187 558.449 71.9187C557.696 71.9187 557.159 72.2949 556.836 73.0474L519.912 188.013Z" fill="black"/>
</g>
<defs>
<clipPath id="clip0_202_2">
<rect width="1328" height="339" fill="white"/>
</clipPath>
</defs>
</svg>
